<?xml version="1.0" encoding="UTF-8" standalone="no"?>
<!-- Created with Inkscape (http://www.inkscape.org/) -->

<svg
   xmlns:dc="http://purl.org/dc/elements/1.1/"
   xmlns:cc="http://creativecommons.org/ns#"
   xmlns:rdf="http://www.w3.org/1999/02/22-rdf-syntax-ns#"
   xmlns:svg="http://www.w3.org/2000/svg"
   xmlns="http://www.w3.org/2000/svg"
   xmlns:inkscape="http://www.inkscape.org/namespaces/inkscape"
   version="1.1"
   width="500"
   height="818.75"
   id="svg2"
   xml:space="preserve"><metadata
     id="metadata8"><rdf:RDF><cc:Work
         rdf:about=""><dc:format>image/svg+xml</dc:format><dc:type
           rdf:resource="http://purl.org/dc/dcmitype/StillImage" /></cc:Work></rdf:RDF></metadata><defs
     id="defs6" /><g
     transform="matrix(1.25,0,0,-1.25,0,818.75)"
     id="g10"><g
       transform="scale(0.1,0.1)"
       id="g12"><path
         d="m 1431.47,1998.39 0,258.86"
         inkscape:connector-curvature="0"
         id="path14"
         style="fill:none;stroke:#1a1a1a;stroke-width:28.34600067;stroke-linecap:butt;stroke-linejoin:miter;stroke-miterlimit:10;stroke-opacity:1;stroke-dasharray:none" /><path
         d="m 1431.47,2363.55 70.87,-141.73 -70.87,35.43 -70.86,-35.43"
         inkscape:connector-curvature="0"
         id="path16"
         style="fill:#1a1a1a;fill-opacity:1;fill-rule:evenodd;stroke:none" /><path
         d="m 1431.47,2363.55 70.87,-141.73 -70.87,35.43 -70.86,-35.43 70.86,141.73 z"
         inkscape:connector-curvature="0"
         id="path18"
         style="fill:none;stroke:#1a1a1a;stroke-width:28.34600067;stroke-linecap:butt;stroke-linejoin:miter;stroke-miterlimit:10;stroke-opacity:1;stroke-dasharray:none" /><path
         d="m 2565.31,1998.39 0,258.86"
         inkscape:connector-curvature="0"
         id="path20"
         style="fill:none;stroke:#1a1a1a;stroke-width:28.34600067;stroke-linecap:butt;stroke-linejoin:miter;stroke-miterlimit:10;stroke-opacity:1;stroke-dasharray:none" /><path
         d="m 2565.31,2363.55 70.87,-141.73 -70.87,35.43 -70.86,-35.43"
         inkscape:connector-curvature="0"
         id="path22"
         style="fill:#1a1a1a;fill-opacity:1;fill-rule:evenodd;stroke:none" /><path
         d="m 2565.31,2363.55 70.87,-141.73 -70.87,35.43 -70.86,-35.43 70.86,141.73 z"
         inkscape:connector-curvature="0"
         id="path24"
         style="fill:none;stroke:#1a1a1a;stroke-width:28.34600067;stroke-linecap:butt;stroke-linejoin:miter;stroke-miterlimit:10;stroke-opacity:1;stroke-dasharray:none" /><path
         d="m 2565.31,5966.83 0,283.46 1133.84,0 0,-5952.657 -1133.84,0 0,145.472"
         inkscape:connector-curvature="0"
         id="path26"
         style="fill:none;stroke:#1a1a1a;stroke-width:28.34600067;stroke-linecap:butt;stroke-linejoin:miter;stroke-miterlimit:10;stroke-opacity:1;stroke-dasharray:none" /><path
         d="m 2565.31,549.402 70.87,-141.73 -70.87,35.433 -70.86,-35.433"
         inkscape:connector-curvature="0"
         id="path28"
         style="fill:#1a1a1a;fill-opacity:1;fill-rule:evenodd;stroke:none" /><path
         d="m 2565.31,549.402 70.87,-141.73 -70.87,35.433 -70.86,-35.433 70.86,141.73 z"
         inkscape:connector-curvature="0"
         id="path30"
         style="fill:none;stroke:#1a1a1a;stroke-width:28.34600067;stroke-linecap:butt;stroke-linejoin:miter;stroke-miterlimit:10;stroke-opacity:1;stroke-dasharray:none" /><path
         d="m 1431.47,5966.83 0,566.92 2551.14,0 0,-6519.5781 -2551.14,0 0,428.9331"
         inkscape:connector-curvature="0"
         id="path32"
         style="fill:none;stroke:#1a1a1a;stroke-width:28.34600067;stroke-linecap:butt;stroke-linejoin:miter;stroke-miterlimit:10;stroke-opacity:1;stroke-dasharray:none" /><path
         d="m 1431.47,549.402 70.87,-141.73 -70.87,35.433 -70.86,-35.433"
         inkscape:connector-curvature="0"
         id="path34"
         style="fill:#1a1a1a;fill-opacity:1;fill-rule:evenodd;stroke:none" /><path
         d="m 1431.47,549.402 70.87,-141.73 -70.87,35.433 -70.86,-35.433 70.86,141.73 z"
         inkscape:connector-curvature="0"
         id="path36"
         style="fill:none;stroke:#1a1a1a;stroke-width:28.34600067;stroke-linecap:butt;stroke-linejoin:miter;stroke-miterlimit:10;stroke-opacity:1;stroke-dasharray:none" /><path
         d="m 1431.47,3897.57 0,566.93"
         inkscape:connector-curvature="0"
         id="path38"
         style="fill:none;stroke:#1a1a1a;stroke-width:113.38400269;stroke-linecap:butt;stroke-linejoin:miter;stroke-miterlimit:10;stroke-opacity:1;stroke-dasharray:113.384;stroke-dashoffset:0" /><path
         d="m 2565.31,3897.57 0,566.93"
         inkscape:connector-curvature="0"
         id="path40"
         style="fill:none;stroke:#1a1a1a;stroke-width:113.38400269;stroke-linecap:butt;stroke-linejoin:miter;stroke-miterlimit:10;stroke-opacity:1;stroke-dasharray:113.384;stroke-dashoffset:0" /><path
         d="m 14.1719,1298.34 712.3901,0"
         inkscape:connector-curvature="0"
         id="path42"
         style="fill:none;stroke:#1a1a1a;stroke-width:28.34600067;stroke-linecap:butt;stroke-linejoin:miter;stroke-miterlimit:10;stroke-opacity:1;stroke-dasharray:none" /><path
         d="m 832.863,1298.34 -141.73,-70.86 35.429,70.86 -35.429,70.87"
         inkscape:connector-curvature="0"
         id="path44"
         style="fill:#1a1a1a;fill-opacity:1;fill-rule:evenodd;stroke:none" /><path
         d="m 832.863,1298.34 -141.73,-70.86 35.429,70.86 -35.429,70.87 141.73,-70.87 z"
         inkscape:connector-curvature="0"
         id="path46"
         style="fill:none;stroke:#1a1a1a;stroke-width:28.34600067;stroke-linecap:butt;stroke-linejoin:miter;stroke-miterlimit:10;stroke-opacity:1;stroke-dasharray:none" /><path
         d="m 864.555,4549.54 2267.68,0 0,1417.3 -2267.68,0 0,-1417.3 z"
         inkscape:connector-curvature="0"
         id="path48"
         style="fill:#ffffff;fill-opacity:1;fill-rule:nonzero;stroke:none" /><path
         d="m 864.555,4549.54 2267.68,0 0,1417.3 -2267.68,0 0,-1417.3 z"
         inkscape:connector-curvature="0"
         id="path50"
         style="fill:none;stroke:#1a1a1a;stroke-width:28.34600067;stroke-linecap:butt;stroke-linejoin:miter;stroke-miterlimit:10;stroke-opacity:1;stroke-dasharray:none" /><g
         transform="scale(10,10)"
         id="g52"><text
           transform="matrix(1,0,0,-1,215.43,574.337)"
           id="text54"><tspan
             x="0 11.675833 18.668734 30.344566 42.020401 47.858315 59.534149"
             y="0"
             id="tspan56"
             style="font-size:20.99970055px;font-variant:normal;font-weight:normal;writing-mode:lr-tb;fill:#1a1a1a;fill-opacity:1;fill-rule:nonzero;stroke:none;font-family:Helvetica;-inkscape-font-specification:Helvetica">grant_r</tspan><tspan
             x="-103.463 -91.78717 -81.287315 -69.611481 -57.93565 -47.435799"
             y="1.41719"
             id="tspan58"
             style="font-size:20.99970055px;font-variant:normal;font-weight:normal;writing-mode:lr-tb;fill:#1a1a1a;fill-opacity:1;fill-rule:nonzero;stroke:none;font-family:Helvetica;-inkscape-font-specification:Helvetica">bypass</tspan><tspan
             x="1.4170001 13.092834 20.085733 31.761566 43.437401 49.275318 60.951149"
             y="100.62809"
             id="tspan60"
             style="font-size:20.99970055px;font-variant:normal;font-weight:normal;writing-mode:lr-tb;fill:#1a1a1a;fill-opacity:1;fill-rule:nonzero;stroke:none;font-family:Helvetica;-inkscape-font-specification:Helvetica">grant_r</tspan><tspan
             x="-102.046 -90.370171 -79.870316 -68.194481 -56.51865 -46.018799"
             y="102.04528"
             id="tspan62"
             style="font-size:20.99970055px;font-variant:normal;font-weight:normal;writing-mode:lr-tb;fill:#1a1a1a;fill-opacity:1;fill-rule:nonzero;stroke:none;font-family:Helvetica;-inkscape-font-specification:Helvetica">bypass</tspan><tspan
             x="-116.219 -104.54317 -94.04332 -89.381386 -78.881531 -73.043617"
             y="51.022579"
             id="tspan64"
             style="font-size:20.99970055px;font-variant:normal;font-weight:normal;writing-mode:lr-tb;fill:#1a1a1a;fill-opacity:1;fill-rule:nonzero;stroke:none;font-family:Helvetica;-inkscape-font-specification:Helvetica">exists</tspan></text>
</g><path
         d="m 864.555,2395.24 2267.68,0 0,1417.3 -2267.68,0 0,-1417.3 z"
         inkscape:connector-curvature="0"
         id="path66"
         style="fill:#ffffff;fill-opacity:1;fill-rule:nonzero;stroke:none" /><path
         d="m 864.555,2395.24 2267.68,0 0,1417.3 -2267.68,0 0,-1417.3 z"
         inkscape:connector-curvature="0"
         id="path68"
         style="fill:none;stroke:#1a1a1a;stroke-width:28.34600067;stroke-linecap:butt;stroke-linejoin:miter;stroke-miterlimit:10;stroke-opacity:1;stroke-dasharray:none" /><g
         transform="scale(10,10)"
         id="g70"><text
           transform="matrix(1,0,0,-1,215.43,358.908)"
           id="text72"><tspan
             x="0 11.675833 18.668734 30.344566 42.020401 47.858315 59.534149"
             y="0"
             id="tspan74"
             style="font-size:20.99970055px;font-variant:normal;font-weight:normal;writing-mode:lr-tb;fill:#1a1a1a;fill-opacity:1;fill-rule:nonzero;stroke:none;font-family:Helvetica;-inkscape-font-specification:Helvetica">grant_r</tspan><tspan
             x="-103.463 -91.78717 -81.287315 -69.611481 -57.93565 -47.435799"
             y="1.41758"
             id="tspan76"
             style="font-size:20.99970055px;font-variant:normal;font-weight:normal;writing-mode:lr-tb;fill:#1a1a1a;fill-opacity:1;fill-rule:nonzero;stroke:none;font-family:Helvetica;-inkscape-font-specification:Helvetica">bypass</tspan><tspan
             x="1.4170001 13.092834 20.085733 31.761566 43.437401 49.275318 60.951149"
             y="100.62848"
             id="tspan78"
             style="font-size:20.99970055px;font-variant:normal;font-weight:normal;writing-mode:lr-tb;fill:#1a1a1a;fill-opacity:1;fill-rule:nonzero;stroke:none;font-family:Helvetica;-inkscape-font-specification:Helvetica">grant_r</tspan><tspan
             x="-102.046 -90.370171 -79.870316 -68.194481 -56.51865 -46.018799"
             y="102.04567"
             id="tspan80"
             style="font-size:20.99970055px;font-variant:normal;font-weight:normal;writing-mode:lr-tb;fill:#1a1a1a;fill-opacity:1;fill-rule:nonzero;stroke:none;font-family:Helvetica;-inkscape-font-specification:Helvetica">bypass</tspan><tspan
             x="-116.219 -104.54317 -94.04332 -89.381386 -78.881531 -73.043617"
             y="51.022968"
             id="tspan82"
             style="font-size:20.99970055px;font-variant:normal;font-weight:normal;writing-mode:lr-tb;fill:#1a1a1a;fill-opacity:1;fill-rule:nonzero;stroke:none;font-family:Helvetica;-inkscape-font-specification:Helvetica">exists</tspan></text>
</g><path
         d="m 864.555,581.094 2267.68,0 0,1417.3 -2267.68,0 0,-1417.3 z"
         inkscape:connector-curvature="0"
         id="path84"
         style="fill:#ffffff;fill-opacity:1;fill-rule:nonzero;stroke:none" /><path
         d="m 864.555,581.094 2267.68,0 0,1417.3 -2267.68,0 0,-1417.3 z"
         inkscape:connector-curvature="0"
         id="path86"
         style="fill:none;stroke:#1a1a1a;stroke-width:28.34600067;stroke-linecap:butt;stroke-linejoin:miter;stroke-miterlimit:10;stroke-opacity:1;stroke-dasharray:none" /><g
         transform="scale(10,10)"
         id="g88"><text
           transform="matrix(1,0,0,-1,215.43,177.493)"
           id="text90"><tspan
             x="0 11.675833 18.668734 30.344566 42.020401 47.858315 59.534149"
             y="0"
             id="tspan92"
             style="font-size:20.99970055px;font-variant:normal;font-weight:normal;writing-mode:lr-tb;fill:#1a1a1a;fill-opacity:1;fill-rule:nonzero;stroke:none;font-family:Helvetica;-inkscape-font-specification:Helvetica">grant_r</tspan><tspan
             x="-103.463 -91.78717 -81.287315 -69.611481 -57.93565 -47.435799"
             y="1.41758"
             id="tspan94"
             style="font-size:20.99970055px;font-variant:normal;font-weight:normal;writing-mode:lr-tb;fill:#1a1a1a;fill-opacity:1;fill-rule:nonzero;stroke:none;font-family:Helvetica;-inkscape-font-specification:Helvetica">bypass</tspan><tspan
             x="1.4170001 13.092834 20.085733 31.761566 43.437401 49.275318 60.951149"
             y="100.62848"
             id="tspan96"
             style="font-size:20.99970055px;font-variant:normal;font-weight:normal;writing-mode:lr-tb;fill:#1a1a1a;fill-opacity:1;fill-rule:nonzero;stroke:none;font-family:Helvetica;-inkscape-font-specification:Helvetica">grant_r</tspan><tspan
             x="-102.046 -90.370171 -79.870316 -68.194481 -56.51865 -46.018799"
             y="102.04567"
             id="tspan98"
             style="font-size:20.99970055px;font-variant:normal;font-weight:normal;writing-mode:lr-tb;fill:#1a1a1a;fill-opacity:1;fill-rule:nonzero;stroke:none;font-family:Helvetica;-inkscape-font-specification:Helvetica">bypass</tspan><tspan
             x="-116.219 -104.54317 -94.04332 -89.381386 -78.881531 -73.043617"
             y="51.022968"
             id="tspan100"
             style="font-size:20.99970055px;font-variant:normal;font-weight:normal;writing-mode:lr-tb;fill:#1a1a1a;fill-opacity:1;fill-rule:nonzero;stroke:none;font-family:Helvetica;-inkscape-font-specification:Helvetica">exists</tspan></text>
</g><path
         d="m 14.1719,3109.34 712.3901,0"
         inkscape:connector-curvature="0"
         id="path102"
         style="fill:none;stroke:#1a1a1a;stroke-width:28.34600067;stroke-linecap:butt;stroke-linejoin:miter;stroke-miterlimit:10;stroke-opacity:1;stroke-dasharray:none" /><path
         d="m 832.863,3109.34 -141.73,-70.86 35.429,70.86 -35.429,70.87"
         inkscape:connector-curvature="0"
         id="path104"
         style="fill:#1a1a1a;fill-opacity:1;fill-rule:evenodd;stroke:none" /><path
         d="m 832.863,3109.34 -141.73,-70.86 35.429,70.86 -35.429,70.87 141.73,-70.87 z"
         inkscape:connector-curvature="0"
         id="path106"
         style="fill:none;stroke:#1a1a1a;stroke-width:28.34600067;stroke-linecap:butt;stroke-linejoin:miter;stroke-miterlimit:10;stroke-opacity:1;stroke-dasharray:none" /><path
         d="m 14.1719,5256.76 712.3901,0"
         inkscape:connector-curvature="0"
         id="path108"
         style="fill:none;stroke:#1a1a1a;stroke-width:28.34600067;stroke-linecap:butt;stroke-linejoin:miter;stroke-miterlimit:10;stroke-opacity:1;stroke-dasharray:none" /><path
         d="m 832.863,5256.76 -141.73,-70.87 35.429,70.87 -35.429,70.86"
         inkscape:connector-curvature="0"
         id="path110"
         style="fill:#1a1a1a;fill-opacity:1;fill-rule:evenodd;stroke:none" /><path
         d="m 832.863,5256.76 -141.73,-70.87 35.429,70.87 -35.429,70.86 141.73,-70.86 z"
         inkscape:connector-curvature="0"
         id="path112"
         style="fill:none;stroke:#1a1a1a;stroke-width:28.34600067;stroke-linecap:butt;stroke-linejoin:miter;stroke-miterlimit:10;stroke-opacity:1;stroke-dasharray:none" /></g></g></svg>