<?xml version="1.0" encoding="UTF-8" standalone="no"?>
<!-- Created with Inkscape (http://www.inkscape.org/) -->

<svg
   xmlns:dc="http://purl.org/dc/elements/1.1/"
   xmlns:cc="http://creativecommons.org/ns#"
   xmlns:rdf="http://www.w3.org/1999/02/22-rdf-syntax-ns#"
   xmlns:svg="http://www.w3.org/2000/svg"
   xmlns="http://www.w3.org/2000/svg"
   xmlns:inkscape="http://www.inkscape.org/namespaces/inkscape"
   version="1.1"
   width="595"
   height="641.25"
   id="svg2"
   xml:space="preserve"><metadata
     id="metadata8"><rdf:RDF><cc:Work
         rdf:about=""><dc:format>image/svg+xml</dc:format><dc:type
           rdf:resource="http://purl.org/dc/dcmitype/StillImage" /></cc:Work></rdf:RDF></metadata><defs
     id="defs6" /><g
     transform="matrix(1.25,0,0,-1.25,0,641.25)"
     id="g10"><g
       transform="scale(0.1,0.1)"
       id="g12"><path
         d="m 1031.76,369.105 3706.24,0 0,4381.83 -3706.24,0 0,-4381.83 z"
         inkscape:connector-curvature="0"
         id="path14"
         style="fill:#ffffff;fill-opacity:1;fill-rule:nonzero;stroke:none" /><path
         d="m 1031.76,369.105 3706.24,0 0,4381.83 -3706.24,0 0,-4381.83 z"
         inkscape:connector-curvature="0"
         id="path16"
         style="fill:none;stroke:#1a1a1a;stroke-width:28.34600067;stroke-linecap:butt;stroke-linejoin:miter;stroke-miterlimit:10;stroke-opacity:1;stroke-dasharray:56.692;stroke-dashoffset:0" /><path
         d="m 2267.65,1525.02 c 311.81,-155.91 311.81,-467.72 311.81,-779.52 -155.91,155.902 -467.71,155.902 -623.61,0 0,311.8 0,623.61 311.8,779.52"
         inkscape:connector-curvature="0"
         id="path18"
         style="fill:#ffffff;fill-opacity:1;fill-rule:evenodd;stroke:none" /><path
         d="m 2267.65,1525.02 c 311.81,-155.91 311.81,-467.72 311.81,-779.52 -155.91,155.902 -467.71,155.902 -623.61,0 0,311.8 0,623.61 311.8,779.52"
         inkscape:connector-curvature="0"
         id="path20"
         style="fill:none;stroke:#ffffff;stroke-width:28.34600067;stroke-linecap:butt;stroke-linejoin:miter;stroke-miterlimit:10;stroke-opacity:1;stroke-dasharray:none" /><path
         d="m 2267.65,1525.02 c 311.81,-155.91 311.81,-467.72 311.81,-779.52 -155.91,155.902 -467.71,155.902 -623.61,0 0,311.8 0,623.61 311.8,779.52"
         inkscape:connector-curvature="0"
         id="path22"
         style="fill:none;stroke:#1a1a1a;stroke-width:28.34600067;stroke-linecap:butt;stroke-linejoin:miter;stroke-miterlimit:10;stroke-opacity:1;stroke-dasharray:none" /><path
         d="m 2267.65,1525.02 c 311.81,-155.91 311.81,-467.72 311.81,-779.52 -155.91,155.902 -467.71,155.902 -623.61,0 0,311.8 0,623.61 311.8,779.52"
         inkscape:connector-curvature="0"
         id="path24"
         style="fill:none;stroke:#1a1a1a;stroke-width:28.34600067;stroke-linecap:butt;stroke-linejoin:miter;stroke-miterlimit:10;stroke-opacity:1;stroke-dasharray:none" /><path
         d="m 2763.71,3316.18 c 311.8,0 311.8,-467.71 311.8,-779.52 -155.9,0 -467.71,0 -623.61,0 0,311.81 0,779.52 311.81,779.52"
         inkscape:connector-curvature="0"
         id="path26"
         style="fill:#ffffff;fill-opacity:1;fill-rule:evenodd;stroke:none" /><path
         d="m 2763.71,3316.18 c 311.8,0 311.8,-467.71 311.8,-779.52 -155.9,0 -467.71,0 -623.61,0 0,311.81 0,779.52 311.81,779.52"
         inkscape:connector-curvature="0"
         id="path28"
         style="fill:none;stroke:#ffffff;stroke-width:28.34600067;stroke-linecap:butt;stroke-linejoin:miter;stroke-miterlimit:10;stroke-opacity:1;stroke-dasharray:none" /><path
         d="m 2763.71,3316.18 c 311.8,0 311.8,-467.71 311.8,-779.52 -155.9,0 -467.71,0 -623.61,0 0,311.81 0,779.52 311.81,779.52"
         inkscape:connector-curvature="0"
         id="path30"
         style="fill:none;stroke:#1a1a1a;stroke-width:28.34600067;stroke-linecap:butt;stroke-linejoin:miter;stroke-miterlimit:10;stroke-opacity:1;stroke-dasharray:none" /><path
         d="m 2763.71,3316.18 c 311.8,0 311.8,-467.71 311.8,-779.52 -155.9,0 -467.71,0 -623.61,0 0,311.81 0,779.52 311.81,779.52"
         inkscape:connector-curvature="0"
         id="path32"
         style="fill:none;stroke:#1a1a1a;stroke-width:28.34600067;stroke-linecap:butt;stroke-linejoin:miter;stroke-miterlimit:10;stroke-opacity:1;stroke-dasharray:none" /><path
         d="m 2267.65,1525.02 0,625.17 365.66,0 0,251.77"
         inkscape:connector-curvature="0"
         id="path34"
         style="fill:none;stroke:#1a1a1a;stroke-width:28.34600067;stroke-linecap:butt;stroke-linejoin:miter;stroke-miterlimit:10;stroke-opacity:1;stroke-dasharray:none" /><path
         d="m 2633.31,2508.25 70.87,-141.73 -70.87,35.44 -70.86,-35.44"
         inkscape:connector-curvature="0"
         id="path36"
         style="fill:#1a1a1a;fill-opacity:1;fill-rule:evenodd;stroke:none" /><path
         d="m 2633.31,2508.25 70.87,-141.73 -70.87,35.44 -70.86,-35.44 70.86,141.73 z"
         inkscape:connector-curvature="0"
         id="path38"
         style="fill:none;stroke:#1a1a1a;stroke-width:28.34600067;stroke-linecap:butt;stroke-linejoin:miter;stroke-miterlimit:10;stroke-opacity:1;stroke-dasharray:none" /><path
         d="m 2329.69,2151.84 c 0,-40.6 -32.92,-73.52 -73.53,-73.52 -40.6,0 -73.52,32.92 -73.52,73.52 0,40.6 32.92,73.52 73.52,73.52 40.61,0 73.53,-32.92 73.53,-73.52"
         inkscape:connector-curvature="0"
         id="path40"
         style="fill:#1a1a1a;fill-opacity:1;fill-rule:nonzero;stroke:none" /><path
         d="m 2329.69,2151.84 c 0,-40.6 -32.92,-73.52 -73.53,-73.52 -40.6,0 -73.52,32.92 -73.52,73.52 0,40.6 32.92,73.52 73.52,73.52 40.61,0 73.53,-32.92 73.53,-73.52 z"
         inkscape:connector-curvature="0"
         id="path42"
         style="fill:none;stroke:#1a1a1a;stroke-width:28.34600067;stroke-linecap:butt;stroke-linejoin:miter;stroke-miterlimit:10;stroke-opacity:1;stroke-dasharray:none" /><path
         d="m 2329.69,2151.84 c 0,-40.6 -32.92,-73.52 -73.53,-73.52 -40.6,0 -73.52,32.92 -73.52,73.52 0,40.6 32.92,73.52 73.52,73.52 40.61,0 73.53,-32.92 73.53,-73.52 z"
         inkscape:connector-curvature="0"
         id="path44"
         style="fill:none;stroke:#1a1a1a;stroke-width:2.83459997;stroke-linecap:butt;stroke-linejoin:miter;stroke-miterlimit:10;stroke-opacity:1;stroke-dasharray:none" /><path
         d="m 2267.65,1525.02 0,625.17 -449.29,0 0,237.6"
         inkscape:connector-curvature="0"
         id="path46"
         style="fill:none;stroke:#1a1a1a;stroke-width:28.34600067;stroke-linecap:butt;stroke-linejoin:miter;stroke-miterlimit:10;stroke-opacity:1;stroke-dasharray:none" /><path
         d="m 1818.36,2494.08 70.87,-141.73 -70.87,35.44 -70.86,-35.44"
         inkscape:connector-curvature="0"
         id="path48"
         style="fill:#1a1a1a;fill-opacity:1;fill-rule:evenodd;stroke:none" /><path
         d="m 1818.36,2494.08 70.87,-141.73 -70.87,35.44 -70.86,-35.44 70.86,141.73 z"
         inkscape:connector-curvature="0"
         id="path50"
         style="fill:none;stroke:#1a1a1a;stroke-width:28.34600067;stroke-linecap:butt;stroke-linejoin:miter;stroke-miterlimit:10;stroke-opacity:1;stroke-dasharray:none" /><path
         d="m 1651.12,3317.9 c 311.81,0 311.81,-467.71 311.81,-779.52 -155.9,0 -467.71,0 -623.61,0 0,311.81 0,779.52 311.8,779.52"
         inkscape:connector-curvature="0"
         id="path52"
         style="fill:#ffffff;fill-opacity:1;fill-rule:evenodd;stroke:none" /><path
         d="m 1651.12,3317.9 c 311.81,0 311.81,-467.71 311.81,-779.52 -155.9,0 -467.71,0 -623.61,0 0,311.81 0,779.52 311.8,779.52"
         inkscape:connector-curvature="0"
         id="path54"
         style="fill:none;stroke:#ffffff;stroke-width:28.34600067;stroke-linecap:butt;stroke-linejoin:miter;stroke-miterlimit:10;stroke-opacity:1;stroke-dasharray:none" /><path
         d="m 1651.12,3317.9 c 311.81,0 311.81,-467.71 311.81,-779.52 -155.9,0 -467.71,0 -623.61,0 0,311.81 0,779.52 311.8,779.52"
         inkscape:connector-curvature="0"
         id="path56"
         style="fill:none;stroke:#1a1a1a;stroke-width:28.34600067;stroke-linecap:butt;stroke-linejoin:miter;stroke-miterlimit:10;stroke-opacity:1;stroke-dasharray:none" /><path
         d="m 1651.12,3317.9 c 311.81,0 311.81,-467.71 311.81,-779.52 -155.9,0 -467.71,0 -623.61,0 0,311.81 0,779.52 311.8,779.52"
         inkscape:connector-curvature="0"
         id="path58"
         style="fill:none;stroke:#1a1a1a;stroke-width:28.34600067;stroke-linecap:butt;stroke-linejoin:miter;stroke-miterlimit:10;stroke-opacity:1;stroke-dasharray:none" /><path
         d="m 1573.2,2446.82 c 0,-46.97 -38.07,-85.04 -85.04,-85.04 -46.96,0 -85.03,38.07 -85.03,85.04 0,46.96 38.07,85.04 85.03,85.04 46.97,0 85.04,-38.08 85.04,-85.04"
         inkscape:connector-curvature="0"
         id="path60"
         style="fill:#ffffff;fill-opacity:1;fill-rule:nonzero;stroke:none" /><path
         d="m 1573.2,2446.82 c 0,-46.97 -38.07,-85.04 -85.04,-85.04 -46.96,0 -85.03,38.07 -85.03,85.04 0,46.96 38.07,85.04 85.03,85.04 46.97,0 85.04,-38.08 85.04,-85.04 z"
         inkscape:connector-curvature="0"
         id="path62"
         style="fill:none;stroke:#1a1a1a;stroke-width:28.34600067;stroke-linecap:butt;stroke-linejoin:miter;stroke-miterlimit:10;stroke-opacity:1;stroke-dasharray:none" /><path
         d="m 1573.2,2446.82 c 0,-46.97 -38.07,-85.04 -85.04,-85.04 -46.96,0 -85.03,38.07 -85.03,85.04 0,46.96 38.07,85.04 85.03,85.04 46.97,0 85.04,-38.08 85.04,-85.04 z"
         inkscape:connector-curvature="0"
         id="path64"
         style="fill:none;stroke:#1a1a1a;stroke-width:2.83459997;stroke-linecap:butt;stroke-linejoin:miter;stroke-miterlimit:10;stroke-opacity:1;stroke-dasharray:none" /><path
         d="m 0,1972.02 2945.12,0 0,422.85"
         inkscape:connector-curvature="0"
         id="path66"
         style="fill:none;stroke:#1a1a1a;stroke-width:28.34600067;stroke-linecap:butt;stroke-linejoin:miter;stroke-miterlimit:10;stroke-opacity:1;stroke-dasharray:none" /><path
         d="m 2945.12,2501.17 70.86,-141.73 -70.86,35.43 -70.87,-35.43"
         inkscape:connector-curvature="0"
         id="path68"
         style="fill:#1a1a1a;fill-opacity:1;fill-rule:evenodd;stroke:none" /><path
         d="m 2945.12,2501.17 70.86,-141.73 -70.86,35.43 -70.87,-35.43 70.87,141.73 z"
         inkscape:connector-curvature="0"
         id="path70"
         style="fill:none;stroke:#1a1a1a;stroke-width:28.34600067;stroke-linecap:butt;stroke-linejoin:miter;stroke-miterlimit:10;stroke-opacity:1;stroke-dasharray:none" /><path
         d="m 1560.8,1970.07 c 0,-40.6 -32.92,-73.52 -73.52,-73.52 -40.6,0 -73.52,32.92 -73.52,73.52 0,40.6 32.92,73.52 73.52,73.52 40.6,0 73.52,-32.92 73.52,-73.52"
         inkscape:connector-curvature="0"
         id="path72"
         style="fill:#1a1a1a;fill-opacity:1;fill-rule:nonzero;stroke:none" /><path
         d="m 1560.8,1970.07 c 0,-40.6 -32.92,-73.52 -73.52,-73.52 -40.6,0 -73.52,32.92 -73.52,73.52 0,40.6 32.92,73.52 73.52,73.52 40.6,0 73.52,-32.92 73.52,-73.52 z"
         inkscape:connector-curvature="0"
         id="path74"
         style="fill:none;stroke:#1a1a1a;stroke-width:28.34600067;stroke-linecap:butt;stroke-linejoin:miter;stroke-miterlimit:10;stroke-opacity:1;stroke-dasharray:none" /><path
         d="m 1560.8,1970.07 c 0,-40.6 -32.92,-73.52 -73.52,-73.52 -40.6,0 -73.52,32.92 -73.52,73.52 0,40.6 32.92,73.52 73.52,73.52 40.6,0 73.52,-32.92 73.52,-73.52 z"
         inkscape:connector-curvature="0"
         id="path76"
         style="fill:none;stroke:#1a1a1a;stroke-width:2.83459997;stroke-linecap:butt;stroke-linejoin:miter;stroke-miterlimit:10;stroke-opacity:1;stroke-dasharray:none" /><path
         d="m 1487.48,2057.77 0.38,166.02"
         inkscape:connector-curvature="0"
         id="path78"
         style="fill:none;stroke:#1a1a1a;stroke-width:28.34600067;stroke-linecap:butt;stroke-linejoin:miter;stroke-miterlimit:10;stroke-opacity:1;stroke-dasharray:none" /><path
         d="m 1488.09,2330.09 70.55,-141.89 -70.78,35.59 -70.95,-35.27"
         inkscape:connector-curvature="0"
         id="path80"
         style="fill:#1a1a1a;fill-opacity:1;fill-rule:evenodd;stroke:none" /><path
         d="m 1488.09,2330.09 70.55,-141.89 -70.78,35.59 -70.95,-35.27 71.18,141.57 z"
         inkscape:connector-curvature="0"
         id="path82"
         style="fill:none;stroke:#1a1a1a;stroke-width:28.34600067;stroke-linecap:butt;stroke-linejoin:miter;stroke-miterlimit:10;stroke-opacity:1;stroke-dasharray:none" /><path
         d="m 1651.12,3317.9 -2.61,1628.11"
         inkscape:connector-curvature="0"
         id="path84"
         style="fill:none;stroke:#1a1a1a;stroke-width:28.34600067;stroke-linecap:butt;stroke-linejoin:miter;stroke-miterlimit:10;stroke-opacity:1;stroke-dasharray:none" /><path
         d="m 1648.34,5052.31 71.09,-141.62 -70.92,35.32 -70.81,-35.55"
         inkscape:connector-curvature="0"
         id="path86"
         style="fill:#1a1a1a;fill-opacity:1;fill-rule:evenodd;stroke:none" /><path
         d="m 1648.34,5052.31 71.09,-141.62 -70.92,35.32 -70.81,-35.55 70.64,141.85 z"
         inkscape:connector-curvature="0"
         id="path88"
         style="fill:none;stroke:#1a1a1a;stroke-width:28.34600067;stroke-linecap:butt;stroke-linejoin:miter;stroke-miterlimit:10;stroke-opacity:1;stroke-dasharray:none" /><path
         d="m 2101.82,14.3398 8.13,695.5622"
         inkscape:connector-curvature="0"
         id="path90"
         style="fill:none;stroke:#1a1a1a;stroke-width:28.34600067;stroke-linecap:butt;stroke-linejoin:miter;stroke-miterlimit:10;stroke-opacity:1;stroke-dasharray:none" /><path
         d="m 2111.2,816.191 69.2,-142.546 -70.45,36.257 -71.27,-34.601"
         inkscape:connector-curvature="0"
         id="path92"
         style="fill:#1a1a1a;fill-opacity:1;fill-rule:evenodd;stroke:none" /><path
         d="m 2111.2,816.191 69.2,-142.546 -70.45,36.257 -71.27,-34.601 72.52,140.89 z"
         inkscape:connector-curvature="0"
         id="path94"
         style="fill:none;stroke:#1a1a1a;stroke-width:28.34600067;stroke-linecap:butt;stroke-linejoin:miter;stroke-miterlimit:10;stroke-opacity:1;stroke-dasharray:none" /><g
         transform="scale(10,10)"
         id="g96"><text
           transform="matrix(1,0,0,-1,330.89,496.897)"
           id="text98"><tspan
             x="0 11.675833 18.668734 30.344566 42.020401 47.858315 59.534149 66.527046 73.519951 78.181885"
             y="0"
             id="tspan100"
             style="font-size:20.99970055px;font-variant:normal;font-weight:normal;writing-mode:lr-tb;fill:#1a1a1a;fill-opacity:1;fill-rule:nonzero;stroke:none;font-family:Helvetica;-inkscape-font-specification:Helvetica">grant_r(i)</tspan><tspan
             x="-78.188301 -66.512466 -59.519566 -47.843735 -36.1679 -30.329983 -18.65415 -11.66125 -4.6683502 -0.0064169001 6.9864831 18.662317"
             y="480.67499"
             id="tspan102"
             style="font-size:20.99970055px;font-variant:normal;font-weight:normal;writing-mode:lr-tb;fill:#1a1a1a;fill-opacity:1;fill-rule:nonzero;stroke:none;font-family:Helvetica;-inkscape-font-specification:Helvetica">grant_r(i-1)</tspan><tspan
             x="-255.23331 -243.55746 -233.05762 -221.38179 -209.70595 -199.2061 -188.70625 -181.71335 -177.05142 -170.05852 -158.38269"
             y="482.60782"
             id="tspan104"
             style="font-size:20.99970055px;font-variant:normal;font-weight:normal;writing-mode:lr-tb;fill:#1a1a1a;fill-opacity:1;fill-rule:nonzero;stroke:none;font-family:Helvetica;-inkscape-font-specification:Helvetica">bypass(i-1)</tspan><tspan
             x="-150.19031 -138.51447 -128.01462 -116.33878 -104.66295 -94.163101 -83.663254 -76.670349 -72.008415"
             y="2.07581"
             id="tspan106"
             style="font-size:20.99970055px;font-variant:normal;font-weight:normal;writing-mode:lr-tb;fill:#1a1a1a;fill-opacity:1;fill-rule:nonzero;stroke:none;font-family:Helvetica;-inkscape-font-specification:Helvetica">bypass(i)</tspan><tspan
             x="-328.60031 -316.92447 -306.42462 -301.7627 -291.26285 -285.42493 -274.92508 -267.93216 -263.27023"
             y="282.9588"
             id="tspan108"
             style="font-size:20.99970055px;font-variant:normal;font-weight:normal;writing-mode:lr-tb;fill:#1a1a1a;fill-opacity:1;fill-rule:nonzero;stroke:none;font-family:Helvetica;-inkscape-font-specification:Helvetica">exists(i)</tspan></text>
</g><path
         d="m 2413.63,14.3398 5.73,685.8242"
         inkscape:connector-curvature="0"
         id="path110"
         style="fill:none;stroke:#1a1a1a;stroke-width:28.34600067;stroke-linecap:butt;stroke-linejoin:miter;stroke-miterlimit:10;stroke-opacity:1;stroke-dasharray:none" /><path
         d="m 2420.25,806.457 69.68,-142.32 -70.57,36.027 -71.16,-34.84"
         inkscape:connector-curvature="0"
         id="path112"
         style="fill:#1a1a1a;fill-opacity:1;fill-rule:evenodd;stroke:none" /><path
         d="m 2420.25,806.457 69.68,-142.32 -70.57,36.027 -71.16,-34.84 72.05,141.133 z"
         inkscape:connector-curvature="0"
         id="path114"
         style="fill:none;stroke:#1a1a1a;stroke-width:28.34600067;stroke-linecap:butt;stroke-linejoin:miter;stroke-miterlimit:10;stroke-opacity:1;stroke-dasharray:none" /><path
         d="m 3273.93,3509.23 850.383,0 0,1133.84 -850.383,0 0,-1133.84 z"
         inkscape:connector-curvature="0"
         id="path116"
         style="fill:#ffffff;fill-opacity:1;fill-rule:nonzero;stroke:none" /><path
         d="m 3273.93,3509.23 850.383,0 0,1133.84 -850.383,0 0,-1133.84 z"
         inkscape:connector-curvature="0"
         id="path118"
         style="fill:none;stroke:#000000;stroke-width:28.34600067;stroke-linecap:butt;stroke-linejoin:miter;stroke-miterlimit:10;stroke-opacity:1;stroke-dasharray:none" /><path
         d="m 3707.13,3619.9 81.5,-110.89 -162.99,0"
         inkscape:connector-curvature="0"
         id="path120"
         style="fill:#ffffff;fill-opacity:1;fill-rule:evenodd;stroke:none" /><path
         d="m 3707.13,3619.9 81.5,-110.89 -162.99,0 81.49,110.89 z"
         inkscape:connector-curvature="0"
         id="path122"
         style="fill:none;stroke:#000000;stroke-width:28.34600067;stroke-linecap:butt;stroke-linejoin:miter;stroke-miterlimit:10;stroke-opacity:1;stroke-dasharray:none" /><g
         transform="scale(10,10)"
         id="g124"><text
           transform="matrix(1,0,0,-1,387.611,436.348)"
           id="text126"><tspan
             x="0"
             y="0"
             id="tspan128"
             style="font-size:20.99970055px;font-variant:normal;font-weight:normal;writing-mode:lr-tb;fill:#1a1a1a;fill-opacity:1;fill-rule:nonzero;stroke:none;font-family:Helvetica;-inkscape-font-specification:Helvetica">Q</tspan><tspan
             x="-54.2117"
             y="1.13359"
             id="tspan130"
             style="font-size:20.99970055px;font-variant:normal;font-weight:normal;writing-mode:lr-tb;fill:#1a1a1a;fill-opacity:1;fill-rule:nonzero;stroke:none;font-family:Helvetica;-inkscape-font-specification:Helvetica">D</tspan></text>
</g><path
         d="m 2763.71,3316.18 0,1043.44 372.24,0"
         inkscape:connector-curvature="0"
         id="path132"
         style="fill:none;stroke:#1a1a1a;stroke-width:28.34600067;stroke-linecap:butt;stroke-linejoin:miter;stroke-miterlimit:10;stroke-opacity:1;stroke-dasharray:none" /><path
         d="m 3242.24,4359.62 -141.73,-70.87 35.44,70.87 -35.44,70.86"
         inkscape:connector-curvature="0"
         id="path134"
         style="fill:#1a1a1a;fill-opacity:1;fill-rule:evenodd;stroke:none" /><path
         d="m 3242.24,4359.62 -141.73,-70.87 35.44,70.87 -35.44,70.86 141.73,-70.86 z"
         inkscape:connector-curvature="0"
         id="path136"
         style="fill:none;stroke:#1a1a1a;stroke-width:28.34600067;stroke-linecap:butt;stroke-linejoin:miter;stroke-miterlimit:10;stroke-opacity:1;stroke-dasharray:none" /><path
         d="m 4124.32,4359.62 316.05,0 0,600.56"
         inkscape:connector-curvature="0"
         id="path138"
         style="fill:none;stroke:#1a1a1a;stroke-width:28.34600067;stroke-linecap:butt;stroke-linejoin:miter;stroke-miterlimit:10;stroke-opacity:1;stroke-dasharray:none" /><path
         d="m 4440.37,5066.48 70.86,-141.73 -70.86,35.43 -70.87,-35.43"
         inkscape:connector-curvature="0"
         id="path140"
         style="fill:#1a1a1a;fill-opacity:1;fill-rule:evenodd;stroke:none" /><path
         d="m 4440.37,5066.48 70.86,-141.73 -70.86,35.43 -70.87,-35.43 70.87,141.73 z"
         inkscape:connector-curvature="0"
         id="path142"
         style="fill:none;stroke:#1a1a1a;stroke-width:28.34600067;stroke-linecap:butt;stroke-linejoin:miter;stroke-miterlimit:10;stroke-opacity:1;stroke-dasharray:none" /></g></g></svg>